<?xml version="1.0" standalone="no"?>
<!DOCTYPE svg PUBLIC "-//W3C//DTD SVG 20010904//EN"
 "http://www.w3.org/TR/2001/REC-SVG-20010904/DTD/svg10.dtd">
<svg version="1.0" xmlns="http://www.w3.org/2000/svg"
 width="1280.000000pt" height="1192.000000pt" viewBox="0 0 1280.000000 1192.000000"
 preserveAspectRatio="xMidYMid meet">
<metadata>
Created by potrace 1.15, written by Peter Selinger 2001-2017
</metadata>
<g transform="translate(0.000000,1192.000000) scale(0.100000,-0.100000)"
fill="#000000" stroke="none">
<path d="M8525 11901 c-63 -29 -153 -131 -235 -265 -251 -413 -562 -1241
-1337 -3564 -206 -618 -372 -1126 -370 -1129 3 -2 58 155 122 349 688 2065
1189 3385 1422 3738 98 149 213 212 213 116 0 -77 -89 -293 -164 -396 -41 -56
-176 -290 -176 -304 0 -6 24 16 53 48 222 251 420 554 481 738 34 100 34 147
0 187 -32 38 -78 48 -158 33 -33 -6 -62 -10 -64 -7 -9 8 84 190 126 247 71 97
144 125 193 72 19 -21 24 -38 27 -97 2 -40 -3 -102 -11 -139 -7 -38 -12 -68
-10 -68 9 0 63 131 78 191 23 87 16 157 -19 203 -50 66 -101 80 -171 47z"/>
<path d="M4102 11873 c-58 -55 -70 -105 -50 -202 14 -68 76 -227 84 -218 2 2
-3 37 -12 78 -20 93 -15 180 13 217 15 21 30 28 63 30 41 3 46 0 100 -56 42
-42 73 -89 114 -172 31 -62 55 -115 52 -117 -2 -3 -21 0 -43 6 -21 6 -61 11
-90 11 -61 0 -107 -31 -116 -80 -27 -133 165 -479 458 -824 86 -102 119 -131
94 -83 -31 60 -128 220 -172 286 -111 165 -188 379 -154 425 13 18 17 18 48 6
89 -37 164 -144 304 -433 272 -562 700 -1713 1307 -3520 50 -147 92 -266 95
-264 13 14 -811 2432 -1100 3227 -396 1089 -624 1557 -824 1689 -68 45 -119
43 -171 -6z"/>
<path d="M12210 10604 c-134 -21 -449 -104 -489 -128 -5 -3 11 -26 35 -51 83
-87 114 -181 114 -351 0 -134 -17 -232 -70 -398 -51 -160 -102 -281 -199 -474
-120 -239 -302 -543 -431 -716 -22 -30 -40 -58 -40 -61 0 -12 191 111 365 234
557 396 980 846 1180 1256 91 187 118 276 119 400 1 89 -2 106 -24 149 -54
105 -148 147 -340 152 -79 2 -160 -2 -220 -12z"/>
<path d="M225 10584 c-260 -63 -293 -298 -99 -692 115 -233 272 -440 529 -698
178 -178 337 -316 539 -467 181 -135 486 -336 486 -321 0 3 -13 23 -28 43
-113 144 -327 495 -447 732 -190 375 -275 647 -275 878 0 167 40 282 123 357
21 20 37 37 35 39 -7 7 -201 65 -293 89 -216 54 -445 70 -570 40z"/>
<path d="M11444 10359 c-74 -12 -212 -63 -349 -128 -170 -81 -446 -234 -540
-299 -414 -287 -1340 -1100 -2575 -2261 -620 -584 -1310 -1258 -1310 -1280 0
-5 42 16 93 48 169 106 466 273 556 312 49 21 171 63 272 94 276 85 532 193
673 283 147 94 312 249 385 361 42 65 48 81 32 81 -5 0 -69 -35 -143 -77 -232
-134 -440 -223 -519 -223 -45 0 -72 34 -64 78 21 113 144 273 429 557 352 352
763 705 1301 1121 302 234 679 493 792 547 92 42 199 49 258 15 83 -49 125
-154 125 -316 0 -380 -265 -811 -591 -961 -35 -16 -154 -69 -264 -117 -384
-166 -749 -347 -907 -450 -120 -77 -95 -80 192 -24 721 142 1170 323 1535 617
206 166 441 434 578 658 163 269 273 576 311 873 26 199 19 309 -25 399 -37
76 -131 112 -245 92z"/>
<path d="M1207 10336 c-21 -8 -48 -22 -59 -33 -118 -107 -96 -494 54 -913 77
-218 249 -511 416 -710 105 -126 295 -307 417 -400 356 -268 787 -433 1488
-569 294 -57 310 -55 180 30 -154 98 -562 297 -967 470 -271 116 -329 151
-447 268 -155 154 -259 334 -317 551 -21 79 -25 118 -26 230 0 166 18 226 90
288 141 125 301 50 989 -463 504 -375 1015 -807 1373 -1160 282 -276 410 -435
447 -550 16 -51 16 -57 1 -80 -44 -67 -245 2 -616 214 -58 32 -107 55 -108 50
-9 -23 71 -132 168 -229 219 -219 461 -346 935 -490 94 -28 208 -68 255 -88
93 -39 322 -164 522 -285 70 -42 130 -77 134 -77 32 0 -733 742 -1506 1460
-1139 1059 -2026 1828 -2398 2079 -69 47 -297 173 -450 250 -214 107 -401 171
-497 170 -22 0 -57 -6 -78 -13z"/>
<path d="M10299 9251 c-172 -55 -600 -384 -1249 -960 -364 -322 -793 -721
-786 -728 7 -7 49 23 361 257 589 444 618 460 995 555 218 55 342 98 452 158
279 152 477 392 482 582 3 133 -98 186 -255 136z"/>
<path d="M2323 9241 c-59 -27 -77 -66 -71 -152 18 -243 330 -541 688 -657 36
-12 153 -43 260 -71 366 -93 407 -115 998 -558 178 -134 330 -243 338 -243 19
0 -168 175 -586 551 -785 704 -1278 1085 -1467 1134 -75 20 -109 19 -160 -4z"/>
<path d="M12211 8795 c-72 -16 -181 -70 -515 -252 -214 -117 -556 -309 -564
-317 -1 -2 13 -30 33 -62 123 -204 161 -478 100 -719 -56 -223 -174 -463 -319
-645 -19 -24 -34 -46 -32 -47 5 -5 237 73 346 117 243 97 516 244 684 369 259
193 419 378 543 624 154 309 184 587 82 778 -70 131 -203 188 -358 154z"/>
<path d="M437 8779 c-125 -29 -216 -136 -248 -289 -18 -84 -6 -267 25 -376 85
-310 282 -597 562 -823 186 -151 470 -313 744 -424 126 -51 347 -127 370 -127
6 0 -16 35 -49 78 -149 196 -261 436 -312 667 -18 81 -16 292 3 380 21 91 69
217 112 287 l34 57 -167 94 c-521 296 -827 453 -917 472 -77 16 -102 17 -157
4z"/>
<path d="M10845 7984 c-97 -24 -486 -151 -670 -219 -490 -181 -909 -368 -1369
-612 -343 -183 -735 -351 -1351 -583 -318 -119 -638 -249 -675 -272 l-35 -22
110 -12 c565 -61 1160 -88 1383 -63 208 23 428 87 398 116 -4 4 -84 17 -179
29 -257 33 -334 63 -387 150 -34 53 -22 75 73 137 138 92 742 434 922 522 482
237 808 300 994 194 97 -56 153 -168 155 -309 1 -74 -3 -92 -26 -140 -15 -30
-47 -77 -70 -104 -153 -177 -541 -357 -1018 -471 -222 -53 -226 -56 -65 -51
368 13 1004 153 1360 301 417 173 694 535 745 974 22 190 -17 370 -92 425 -36
26 -124 30 -203 10z"/>
<path d="M1762 7960 c-47 -29 -79 -104 -94 -223 -29 -232 49 -519 204 -744
103 -151 280 -304 447 -388 249 -124 757 -258 1216 -320 123 -16 394 -32 385
-22 -3 3 -66 19 -140 37 -625 144 -1044 356 -1156 585 -25 53 -29 70 -28 145
3 257 174 388 458 352 287 -36 588 -163 1175 -497 474 -269 531 -306 531 -347
0 -25 -52 -100 -82 -120 -55 -36 -154 -59 -361 -84 -72 -8 -136 -19 -141 -24
-24 -23 144 -78 326 -107 145 -22 488 -22 788 1 279 21 661 55 725 65 l50 7
-35 22 c-41 26 -215 95 -670 267 -741 280 -887 343 -1454 629 -432 218 -756
363 -1116 501 -197 76 -639 224 -775 261 -114 30 -207 32 -253 4z"/>
<path d="M9725 7253 c-249 -38 -727 -234 -1145 -470 -138 -78 -300 -184 -300
-195 0 -13 46 -3 330 69 314 80 389 87 566 53 185 -35 395 -21 566 39 102 35
216 101 276 160 130 125 117 243 -35 318 -46 22 -72 27 -142 29 -47 1 -99 0
-116 -3z"/>
<path d="M2871 7234 c-97 -34 -157 -91 -168 -159 -8 -49 35 -133 95 -186 138
-121 345 -194 582 -205 108 -5 146 -2 278 20 183 32 204 31 492 -43 275 -70
382 -92 377 -78 -10 32 -298 201 -572 336 -526 260 -916 373 -1084 315z"/>
<path d="M6347 6610 c-59 -51 -95 -177 -67 -231 26 -48 143 -69 207 -36 59 31
63 119 8 212 -49 85 -95 102 -148 55z"/>
<path d="M11195 6339 c-201 -16 -515 -64 -515 -79 0 -5 18 -11 41 -15 73 -12
191 -79 251 -143 100 -105 147 -230 155 -417 6 -142 -9 -229 -58 -328 -63
-131 -175 -237 -336 -320 -86 -44 -235 -97 -274 -97 -29 0 -23 -14 14 -29 210
-85 402 -140 587 -167 167 -24 398 -15 535 20 234 61 421 196 556 401 274 414
246 863 -65 1049 -181 109 -506 154 -891 125z"/>
<path d="M1147 6320 c-332 -42 -529 -149 -616 -334 -41 -87 -55 -157 -54 -271
2 -206 78 -422 213 -605 57 -76 175 -192 243 -239 229 -156 582 -199 963 -117
115 25 338 96 433 138 l55 24 -82 22 c-267 73 -467 220 -556 407 -49 103 -61
163 -59 300 4 312 137 511 391 581 34 10 59 21 55 24 -8 7 -204 40 -358 60
-107 14 -542 21 -628 10z"/>
<path d="M6365 6259 c-28 -14 -63 -68 -82 -126 -20 -61 -22 -259 -4 -363 7
-41 31 -151 53 -244 l40 -169 -21 -43 c-48 -101 -79 -332 -88 -664 -9 -348 19
-820 92 -1550 39 -382 55 -504 66 -493 21 22 102 926 129 1438 13 246 13 635
0 806 -14 177 -43 349 -74 434 l-25 70 30 118 c75 299 92 523 49 656 -37 115
-97 163 -165 130z"/>
<path d="M9815 6169 c-55 -5 -181 -18 -280 -29 -552 -61 -1035 -64 -2090 -15
-340 16 -635 19 -635 7 0 -4 46 -23 103 -41 370 -120 759 -318 978 -497 168
-137 343 -164 514 -80 66 33 185 127 185 146 0 5 -17 12 -37 16 -272 46 -414
101 -446 171 -24 54 4 58 648 109 529 41 708 42 899 4 180 -35 322 -102 391
-183 117 -136 36 -273 -190 -322 -99 -22 -423 -31 -554 -16 -123 15 -234 42
-308 75 -29 14 -53 22 -53 18 0 -12 89 -95 155 -144 135 -101 404 -245 591
-316 117 -45 263 -72 386 -72 118 0 347 31 440 60 237 73 388 286 388 547 0
226 -101 415 -263 492 -127 61 -205 73 -477 76 -135 2 -290 -1 -345 -6z"/>
<path d="M2445 6160 c-251 -33 -395 -120 -470 -282 -140 -305 -40 -648 231
-790 153 -81 536 -124 729 -83 272 58 697 279 880 458 38 38 63 66 55 63 -8
-2 -44 -17 -79 -32 -108 -44 -228 -65 -421 -71 -435 -14 -653 60 -653 222 0
149 233 284 558 324 133 16 327 13 620 -9 143 -10 298 -22 345 -25 222 -16
417 -37 447 -50 l34 -14 -16 -31 c-32 -63 -160 -118 -355 -155 -150 -28 -139
-20 -94 -67 57 -60 149 -116 227 -140 137 -41 293 -7 415 92 257 207 594 382
1005 521 53 18 97 36 97 41 0 13 -231 9 -670 -12 -1032 -51 -1497 -48 -2050
10 -376 40 -675 51 -835 30z"/>
<path d="M6040 6035 c-14 -7 -62 -54 -107 -103 -108 -117 -179 -170 -343 -252
-241 -121 -442 -272 -685 -515 -233 -232 -344 -379 -481 -635 -115 -218 -175
-303 -283 -410 -105 -104 -150 -133 -425 -275 -474 -244 -774 -494 -900 -750
-49 -98 -66 -179 -66 -316 0 -140 28 -263 88 -392 120 -257 357 -485 609 -586
84 -34 101 -60 84 -128 -29 -114 -127 -266 -434 -676 -330 -440 -449 -626
-491 -766 -33 -113 -12 -166 81 -201 214 -81 355 7 503 315 27 55 99 224 160
375 131 322 199 466 268 570 80 121 160 184 189 148 37 -47 21 -131 -72 -373
-118 -309 -145 -411 -131 -490 9 -44 42 -68 96 -67 69 1 136 51 204 149 91
135 145 309 166 541 20 220 69 356 164 460 87 93 188 130 220 80 47 -76 17
-224 -76 -374 -52 -83 -82 -156 -102 -241 -39 -175 -5 -303 82 -303 28 0 43
10 91 58 147 148 293 514 337 845 23 173 14 337 -40 742 -25 187 -52 405 -61
485 -78 761 -13 1338 204 1785 100 208 209 357 418 575 161 168 265 231 301
184 41 -55 -26 -299 -158 -572 -90 -185 -127 -250 -216 -374 -157 -221 -271
-515 -324 -839 -59 -365 -50 -711 36 -1329 45 -319 56 -584 30 -723 -21 -112
-54 -204 -122 -339 -30 -59 -54 -110 -54 -113 0 -18 36 18 78 78 211 306 282
675 218 1129 -39 271 -48 404 -48 668 0 499 78 850 222 1001 72 76 105 44 104
-101 -2 -122 -25 -245 -85 -448 -73 -246 -84 -310 -83 -507 0 -152 3 -186 31
-317 36 -166 52 -210 53 -138 1 114 22 384 36 469 24 139 58 234 124 341 112
182 170 344 227 635 14 77 17 155 18 540 1 392 3 461 19 535 19 90 46 163 73
192 53 59 163 -50 163 -163 0 -42 -30 -130 -67 -196 -47 -85 -67 -195 -58
-326 7 -105 38 -274 53 -289 6 -6 14 24 22 79 34 250 74 365 161 468 85 101
119 224 119 427 0 140 -9 211 -59 448 -21 98 -31 173 -31 233 0 93 -3 98 -50
72z m-1422 -1459 c-17 -163 -72 -326 -181 -542 -36 -71 -71 -149 -77 -174 -16
-60 -16 -172 -1 -240 18 -79 91 -223 156 -309 31 -40 54 -75 52 -78 -2 -2
-110 48 -238 112 -208 103 -243 117 -315 127 -188 27 -391 -58 -527 -220 -55
-65 -138 -228 -162 -317 -25 -92 -30 -255 -11 -345 31 -149 126 -296 236 -365
79 -50 145 -67 255 -68 116 0 196 22 282 78 163 108 198 336 72 479 -93 106
-286 139 -359 61 -59 -62 -23 -262 66 -368 19 -23 22 -32 13 -49 -17 -32 -76
-51 -144 -45 -179 14 -277 168 -277 437 0 186 46 316 158 438 43 47 80 77 126
99 217 108 421 72 587 -103 121 -126 200 -319 201 -485 0 -75 -28 -197 -65
-276 -83 -183 -308 -402 -459 -449 -28 -9 -98 -18 -156 -21 -168 -8 -360 41
-520 134 -178 104 -331 335 -381 578 -79 382 112 685 551 876 314 136 512 268
699 465 140 148 232 295 343 548 22 50 47 102 55 115 15 24 16 24 23 5 4 -10
3 -54 -2 -98z"/>
<path d="M6724 5957 c-1 -65 -14 -151 -44 -297 -40 -190 -43 -216 -44 -365 0
-229 28 -326 131 -453 77 -95 106 -177 143 -407 12 -71 23 -131 25 -133 7 -7
34 99 46 178 6 44 10 138 7 208 l-4 127 -54 115 c-45 95 -55 126 -58 181 -5
76 18 133 67 168 82 59 127 0 168 -219 16 -82 18 -146 15 -478 -1 -229 2 -418
8 -470 35 -278 127 -554 247 -739 22 -34 52 -91 66 -126 49 -123 87 -395 87
-625 0 -66 3 -93 10 -86 24 24 72 298 77 444 7 184 -11 303 -78 529 -27 91
-59 210 -70 265 -26 122 -31 304 -10 329 47 58 144 -49 211 -232 70 -192 104
-455 104 -806 0 -258 -11 -411 -45 -645 -40 -273 -35 -464 17 -670 41 -163
115 -334 194 -450 37 -53 90 -111 90 -97 0 4 -26 60 -59 125 -109 219 -136
332 -135 572 0 144 7 223 37 445 89 656 98 1009 36 1375 -49 289 -155 578
-278 760 -131 193 -164 246 -214 340 -148 278 -249 584 -218 663 15 40 61 37
131 -9 63 -42 242 -220 346 -344 367 -437 526 -1036 486 -1823 -14 -270 -28
-409 -82 -827 -63 -481 -68 -610 -30 -822 64 -356 241 -739 380 -817 35 -20
43 -21 67 -9 47 23 65 60 71 140 8 129 -22 221 -146 449 -92 169 -95 349 -5
349 40 0 123 -49 174 -102 93 -97 148 -252 169 -476 13 -139 30 -223 67 -327
75 -212 196 -348 310 -348 59 0 84 25 90 90 7 69 -24 179 -114 413 -113 292
-133 380 -93 420 40 40 106 -11 197 -151 64 -99 146 -275 267 -570 196 -480
273 -609 401 -677 66 -35 172 -36 256 -3 69 26 89 47 96 100 17 128 -95 322
-492 850 -352 469 -442 612 -453 719 -5 57 6 69 95 106 308 129 581 442 662
759 98 383 -44 678 -484 1007 -111 82 -234 155 -470 278 -267 139 -339 185
-430 277 -91 92 -154 184 -265 391 -143 263 -295 462 -513 670 -239 229 -429
369 -650 480 -179 90 -195 102 -353 256 -69 67 -129 118 -140 118 -17 0 -19
-9 -20 -93z m1562 -1418 c29 -66 73 -157 98 -202 180 -332 473 -584 883 -763
161 -70 236 -112 336 -188 245 -184 338 -451 262 -751 -45 -177 -160 -374
-274 -469 -192 -161 -511 -243 -741 -190 -209 47 -468 326 -536 575 -23 85
-23 233 0 318 26 95 94 225 156 299 157 187 371 237 586 137 183 -84 297 -271
310 -505 13 -233 -67 -418 -201 -464 -116 -39 -260 3 -216 63 53 74 86 149
102 238 25 136 -54 205 -206 181 -148 -23 -245 -133 -253 -285 -5 -85 8 -130
55 -200 65 -97 188 -158 343 -170 193 -15 374 94 464 279 50 103 66 174 66
299 0 332 -199 631 -480 720 -76 24 -220 29 -290 10 -25 -7 -143 -62 -264
-122 -120 -60 -222 -109 -226 -107 -5 2 14 32 41 68 134 177 191 346 169 505
-8 57 -26 103 -94 240 -46 94 -95 202 -109 240 -48 136 -86 341 -72 385 l7 22
15 -22 c8 -12 39 -75 69 -141z"/>
<path d="M3765 5883 c-235 -7 -511 -43 -649 -84 -91 -27 -203 -86 -224 -117
-15 -24 -15 -26 11 -48 46 -39 99 -49 282 -49 201 0 235 9 323 87 31 28 75 59
97 69 59 26 370 66 658 85 197 12 130 39 -135 54 -95 5 -198 9 -228 8 -30 -1
-91 -3 -135 -5z"/>
<path d="M8556 5880 c-86 -11 -116 -18 -116 -28 0 -5 115 -19 256 -31 455 -40
512 -52 594 -128 91 -84 128 -96 300 -101 204 -5 340 26 340 78 0 47 -144 120
-313 160 -174 40 -319 52 -662 56 -181 1 -361 -1 -399 -6z"/>
<path d="M9132 4938 c511 -510 799 -838 928 -1057 100 -168 171 -193 241 -83
59 94 100 336 80 483 -29 219 -185 377 -546 554 -179 87 -974 415 -1007 415
-5 0 132 -141 304 -312z"/>
<path d="M3930 5226 c-19 -8 -206 -84 -415 -170 -599 -247 -766 -336 -926
-496 -99 -98 -132 -159 -150 -271 -28 -178 26 -450 105 -534 65 -69 121 -39
215 115 151 246 386 514 925 1058 170 171 303 312 295 311 -8 0 -30 -6 -49
-13z"/>
</g>
</svg>
